# xmcd
#
# Track frame offsets: 
#        182
#        13805
#        35330
#        63377
#        82695
#        98975
#        127915
#        144210
#        164902
#        180660
#
# Disc length: 2647 seconds
#
# Revision: 3
# Processed by: cddbd v1.5.2PL0 Copyright (c) Steve Scherf et al.
# Submitted via: ExactAudioCopy v0.99pb4
#
DISCID=7b0a550a
DTITLE=Little Willie Littlefield - Paris Streetlights
DYEAR=1992
DGENRE=Blues
TTITLE0=Paris Streetlights
TTITLE1=I Got The Blues Over You
TTITLE2=Cours De Vincennes
TTITLE3=Sometimes
TTITLE4=Messin' Arround Town
TTITLE5=Dirty
TTITLE6=My Baby's Back in Town (And I Won't Be Lonely Now)
TTITLE7=Paris
TTITLE8=Little Willie's Boogie
TTITLE9=So Long
EXTD=
EXTT0=
EXTT1=
EXTT2=
EXTT3=
EXTT4=
EXTT5=
EXTT6=
EXTT7=
EXTT8=
EXTT9=
PLAYORDER=
